<svg id="svg" xmlns="http://www.w3.org/2000/svg" xmlns:xlink="http://www.w3.org/1999/xlink" width="40" height="40" viewBox="0, 0, 400,400"><g id="svgg"><path id="path0" d="M167.188 0.864 C 112.838 5.145,67.805 20.117,44.939 41.506 C 22.966 62.062,8.471 100.768,1.824 156.641 C 0.060 171.472,-0.219 226.455,1.401 240.234 C 7.374 291.065,22.152 337.656,32.302 337.656 C 39.675 337.656,40.296 333.582,34.730 321.731 C 8.246 265.346,4.755 164.281,26.977 97.266 C 32.470 80.701,41.784 63.435,50.185 54.243 C 79.787 21.854,169.206 4.407,249.609 15.332 C 265.977 17.556,267.569 17.588,269.432 15.724 C 271.567 13.589,271.701 8.604,269.672 6.768 C 264.218 1.832,201.077 -1.806,167.188 0.864 M287.636 12.746 C 283.461 17.190,286.087 21.954,293.972 24.241 C 318.096 31.238,339.146 42.527,349.738 54.147 C 388.263 96.413,399.932 218.954,373.298 301.563 C 367.635 319.126,358.596 336.149,349.853 345.716 C 301.008 399.159,117.043 402.406,55.558 350.910 C 49.029 345.441,46.495 344.840,43.324 348.011 C 37.992 353.343,45.609 361.958,65.625 373.235 C 112.175 399.460,208.865 407.954,280.469 392.107 C 338.757 379.207,365.317 358.885,382.403 314.111 C 403.936 257.686,406.126 165.257,387.453 100.988 C 373.161 51.800,350.059 28.033,302.535 13.628 C 292.031 10.444,289.916 10.319,287.636 12.746 M103.906 100.461 C 99.546 102.344,95.410 106.908,94.117 111.261 C 92.395 117.059,92.395 282.941,94.117 288.739 C 97.032 298.555,110.057 303.987,119.082 299.150 C 123.207 296.939,255.320 215.776,257.934 213.847 C 264.364 209.101,266.061 198.144,261.523 190.672 C 259.002 186.521,258.503 186.195,191.016 144.739 C 153.633 121.775,121.468 102.139,119.537 101.103 C 115.387 98.875,108.256 98.582,103.906 100.461 M285.938 100.424 C 282.359 102.027,279.167 105.111,277.077 108.984 L 275.391 112.109 275.391 200.000 L 275.391 287.891 277.102 291.090 C 283.670 303.363,300.787 304.312,308.392 292.825 L 310.547 289.570 310.772 263.615 L 310.997 237.660 308.909 236.018 C 305.427 233.279,301.453 233.934,299.580 237.556 C 298.654 239.347,298.438 244.071,298.438 262.461 C 298.438 287.666,298.310 288.281,293.090 288.281 C 287.505 288.281,287.891 294.832,287.891 200.000 C 287.891 105.168,287.505 111.719,293.090 111.719 C 298.718 111.719,298.438 108.853,298.438 166.445 C 298.438 210.205,298.611 218.382,299.580 220.257 C 301.450 223.873,305.426 224.534,308.894 221.806 L 310.968 220.175 310.758 165.303 L 310.547 110.432 308.392 107.176 C 303.774 100.198,293.402 97.079,285.938 100.424 M181.501 153.852 C 254.720 198.848,251.563 196.772,251.563 199.920 C 251.563 203.186,252.615 202.491,180.859 246.563 C 110.407 289.834,110.071 290.015,107.145 286.295 L 105.469 284.164 105.469 200.000 L 105.469 115.836 107.145 113.705 C 110.075 109.979,110.370 110.138,181.501 153.852 " stroke="none" fill="#fff" fill-rule="evenodd"></path></g></svg>