<svg id="svg" xmlns="http://www.w3.org/2000/svg" xmlns:xlink="http://www.w3.org/1999/xlink" width="40" height="40" viewBox="0, 0, 400,400"><g id="svgg"><path id="path0" d="M167.578 0.840 C 136.327 3.326,128.906 5.286,128.906 11.059 C 128.906 17.671,130.639 18.016,150.391 15.332 C 230.794 4.407,320.213 21.854,349.815 54.243 C 392.627 101.086,400.982 245.700,365.270 321.731 C 359.704 333.582,360.325 337.656,367.698 337.656 C 377.848 337.656,392.626 291.065,398.599 240.234 C 400.219 226.455,399.940 171.472,398.176 156.641 C 390.499 92.105,373.123 52.205,344.325 32.977 C 307.207 8.195,236.575 -4.648,167.578 0.840 M97.232 13.660 C 54.953 26.654,33.224 45.956,18.504 83.594 C -3.861 140.780,-6.460 233.743,12.488 298.787 C 28.657 354.292,55.873 378.019,119.531 392.107 C 169.624 403.193,238.539 402.573,287.212 390.600 C 330.214 380.021,366.462 357.797,356.676 348.011 C 353.505 344.840,350.971 345.441,344.442 350.910 C 282.957 402.406,98.992 399.159,50.147 345.716 C 10.955 302.833,-0.159 176.045,28.105 94.272 C 41.548 55.378,61.978 37.018,106.028 24.241 C 113.971 21.937,116.714 16.826,112.254 12.636 C 109.827 10.356,107.461 10.517,97.232 13.660 M98.634 100.863 C 94.940 102.691,91.710 106.132,90.116 109.936 C 89.267 111.963,89.062 122.890,89.063 166.324 L 89.063 220.199 91.121 221.818 C 94.574 224.534,98.553 223.866,100.420 220.257 C 101.389 218.382,101.563 210.205,101.563 166.445 C 101.563 108.853,101.282 111.719,106.910 111.719 C 112.495 111.719,112.109 105.168,112.109 200.000 C 112.109 294.832,112.495 288.281,106.910 288.281 C 101.690 288.281,101.563 287.666,101.563 262.461 C 101.563 244.071,101.346 239.347,100.420 237.556 C 98.547 233.934,94.573 233.279,91.091 236.018 L 89.003 237.660 89.228 263.615 L 89.453 289.570 91.608 292.825 C 99.213 304.312,116.330 303.363,122.898 291.090 L 124.609 287.891 124.609 200.000 L 124.609 112.109 122.923 108.984 C 118.151 100.141,107.373 96.537,98.634 100.863 M280.463 101.103 C 278.532 102.139,246.367 121.775,208.984 144.739 C 141.497 186.195,140.998 186.521,138.477 190.672 C 133.939 198.144,135.636 209.101,142.066 213.847 C 144.680 215.776,276.793 296.939,280.918 299.150 C 289.943 303.987,302.968 298.555,305.883 288.739 C 307.605 282.941,307.605 117.059,305.883 111.261 C 302.889 101.179,289.952 96.009,280.463 101.103 M292.912 113.777 C 294.527 115.831,294.531 116.036,294.531 200.000 L 294.531 284.164 292.855 286.295 C 289.929 290.015,289.593 289.834,219.141 246.563 C 142.441 199.455,145.979 201.952,149.059 197.107 C 150.367 195.049,287.130 111.721,289.201 111.720 C 290.531 111.719,291.883 112.468,292.912 113.777 " stroke="none" fill="#fff" fill-rule="evenodd"></path></g></svg>